<svg id="crown" xmlns="http://www.w3.org/2000/svg" viewBox="0 0 175 75">
  <defs>
    <style>
      .cls-1 {
        fill: #f5ec3c;
      }
    </style>
  </defs>
  <title>crown</title>
  <rect class="cls-1" width="25" height="25"/>
  <rect class="cls-1" x="150" width="25" height="25"/>
  <rect class="cls-1" y="25" width="25" height="25"/>
  <rect class="cls-1" x="25" y="25" width="25" height="25"/>
  <rect class="cls-1" x="50" y="25" width="25" height="25"/>
  <rect class="cls-1" x="50" width="25" height="25"/>
  <rect class="cls-1" x="75" y="25" width="25" height="25"/>
  <rect class="cls-1" x="100" y="25" width="25" height="25"/>
  <rect class="cls-1" x="100" width="25" height="25"/>
  <rect class="cls-1" x="125" y="25" width="25" height="25"/>
  <rect class="cls-1" x="150" y="25" width="25" height="25"/>
  <rect class="cls-1" y="50" width="25" height="25"/>
  <rect class="cls-1" x="25" y="50" width="25" height="25"/>
  <rect class="cls-1" x="50" y="50" width="25" height="25"/>
  <rect class="cls-1" x="75" y="50" width="25" height="25"/>
  <rect class="cls-1" x="100" y="50" width="25" height="25"/>
  <rect class="cls-1" x="125" y="50" width="25" height="25"/>
  <rect class="cls-1" x="150" y="50" width="25" height="25"/>
</svg>
