<svg id="monster" xmlns="http://www.w3.org/2000/svg" viewBox="0 0 425 450">
  <defs>
    <style>
      .cls-1 {
        fill: #a8d046;
      }

      .cls-2 {
        fill: #fff;
      }

      .cls-3 {
        fill: #8871a3;
      }
    </style>
  </defs>
  <title>monster</title>
  <rect class="cls-1" x="125" width="25" height="25"/>
  <rect class="cls-1" x="275" width="25" height="25"/>
  <rect class="cls-1" x="125" y="25" width="25" height="25"/>
  <rect class="cls-1" x="150" y="25" width="25" height="25"/>
  <rect class="cls-1" x="175" y="25" width="25" height="25"/>
  <rect class="cls-1" x="200" y="25" width="25" height="25"/>
  <rect class="cls-1" x="225" y="25" width="25" height="25"/>
  <rect class="cls-1" x="250" y="25" width="25" height="25"/>
  <rect class="cls-1" x="275" y="25" width="25" height="25"/>
  <rect class="cls-1" x="125" y="50" width="25" height="25"/>
  <rect class="cls-1" x="150" y="50" width="25" height="25"/>
  <rect class="cls-1" x="175" y="50" width="25" height="25"/>
  <rect class="cls-1" x="200" y="50" width="25" height="25"/>
  <rect class="cls-1" x="225" y="50" width="25" height="25"/>
  <rect class="cls-1" x="250" y="50" width="25" height="25"/>
  <rect class="cls-1" x="275" y="50" width="25" height="25"/>
  <rect class="cls-1" x="100" y="75" width="25" height="25"/>
  <rect class="cls-1" x="125" y="75" width="25" height="25"/>
  <rect class="cls-2" x="150" y="75" width="25" height="25"/>
  <rect class="cls-1" x="175" y="75" width="25" height="25"/>
  <rect class="cls-1" x="200" y="75" width="25" height="25"/>
  <rect class="cls-1" x="225" y="75" width="25" height="25"/>
  <rect class="cls-2" x="250" y="75" width="25" height="25"/>
  <rect class="cls-1" x="275" y="75" width="25" height="25"/>
  <rect class="cls-1" x="300" y="75" width="25" height="25"/>
  <rect class="cls-1" x="100" y="100" width="25" height="25"/>
  <rect class="cls-1" x="125" y="100" width="25" height="25"/>
  <rect class="cls-1" x="150" y="100" width="25" height="25"/>
  <rect class="cls-1" x="175" y="100" width="25" height="25"/>
  <rect class="cls-1" x="200" y="100" width="25" height="25"/>
  <rect class="cls-1" x="225" y="100" width="25" height="25"/>
  <rect class="cls-1" x="250" y="100" width="25" height="25"/>
  <rect class="cls-1" x="275" y="100" width="25" height="25"/>
  <rect class="cls-1" x="300" y="100" width="25" height="25"/>
  <rect class="cls-1" y="125" width="25" height="25"/>
  <rect class="cls-1" x="100" y="125" width="25" height="25"/>
  <rect class="cls-1" x="125" y="125" width="25" height="25"/>
  <rect class="cls-1" x="150" y="125" width="25" height="25"/>
  <rect class="cls-1" x="175" y="125" width="25" height="25"/>
  <rect class="cls-1" x="200" y="125" width="25" height="25"/>
  <rect class="cls-1" x="225" y="125" width="25" height="25"/>
  <rect class="cls-1" x="250" y="125" width="25" height="25"/>
  <rect class="cls-1" x="275" y="125" width="25" height="25"/>
  <rect class="cls-1" x="300" y="125" width="25" height="25"/>
  <rect class="cls-1" x="400" y="125" width="25" height="25"/>
  <rect class="cls-1" y="150" width="25" height="25"/>
  <rect class="cls-1" x="75" y="150" width="25" height="25"/>
  <rect class="cls-1" x="100" y="150" width="25" height="25"/>
  <rect class="cls-3" x="125" y="150" width="25" height="25"/>
  <rect class="cls-3" x="150" y="150" width="25" height="25"/>
  <rect class="cls-3" x="175" y="150" width="25" height="25"/>
  <rect class="cls-3" x="200" y="150" width="25" height="25"/>
  <rect class="cls-3" x="225" y="150" width="25" height="25"/>
  <rect class="cls-3" x="250" y="150" width="25" height="25"/>
  <rect class="cls-3" x="275" y="150" width="25" height="25"/>
  <rect class="cls-1" x="300" y="150" width="25" height="25"/>
  <rect class="cls-1" x="325" y="150" width="25" height="25"/>
  <rect class="cls-1" x="400" y="150" width="25" height="25"/>
  <rect class="cls-1" y="175" width="25" height="25"/>
  <rect class="cls-1" x="25" y="175" width="25" height="25"/>
  <rect class="cls-1" x="50" y="175" width="25" height="25"/>
  <rect class="cls-1" x="75" y="175" width="25" height="25"/>
  <rect class="cls-3" x="100" y="175" width="25" height="25"/>
  <rect class="cls-3" x="125" y="175" width="25" height="25"/>
  <rect class="cls-3" x="150" y="175" width="25" height="25"/>
  <rect class="cls-3" x="175" y="175" width="25" height="25"/>
  <rect class="cls-3" x="200" y="175" width="25" height="25"/>
  <rect class="cls-3" x="225" y="175" width="25" height="25"/>
  <rect class="cls-3" x="250" y="175" width="25" height="25"/>
  <rect class="cls-3" x="275" y="175" width="25" height="25"/>
  <rect class="cls-3" x="300" y="175" width="25" height="25"/>
  <rect class="cls-1" x="325" y="175" width="25" height="25"/>
  <rect class="cls-1" x="350" y="175" width="25" height="25"/>
  <rect class="cls-1" x="375" y="175" width="25" height="25"/>
  <rect class="cls-1" x="400" y="175" width="25" height="25"/>
  <rect class="cls-1" y="200" width="25" height="25"/>
  <rect class="cls-1" x="25" y="200" width="25" height="25"/>
  <rect class="cls-1" x="50" y="200" width="25" height="25"/>
  <rect class="cls-1" x="75" y="200" width="25" height="25"/>
  <rect class="cls-3" x="100" y="200" width="25" height="25"/>
  <rect class="cls-3" x="125" y="200" width="25" height="25"/>
  <rect class="cls-3" x="150" y="200" width="25" height="25"/>
  <rect class="cls-3" x="175" y="200" width="25" height="25"/>
  <rect class="cls-3" x="200" y="200" width="25" height="25"/>
  <rect class="cls-3" x="225" y="200" width="25" height="25"/>
  <rect class="cls-3" x="250" y="200" width="25" height="25"/>
  <rect class="cls-3" x="275" y="200" width="25" height="25"/>
  <rect class="cls-3" x="300" y="200" width="25" height="25"/>
  <rect class="cls-1" x="325" y="200" width="25" height="25"/>
  <rect class="cls-1" x="350" y="200" width="25" height="25"/>
  <rect class="cls-1" x="375" y="200" width="25" height="25"/>
  <rect class="cls-1" x="400" y="200" width="25" height="25"/>
  <rect class="cls-1" x="50" y="225" width="25" height="25"/>
  <rect class="cls-3" x="75" y="225" width="25" height="25"/>
  <rect class="cls-3" x="100" y="225" width="25" height="25"/>
  <rect class="cls-3" x="125" y="225" width="25" height="25"/>
  <rect class="cls-3" x="150" y="225" width="25" height="25"/>
  <rect class="cls-3" x="175" y="225" width="25" height="25"/>
  <rect class="cls-3" x="200" y="225" width="25" height="25"/>
  <rect class="cls-3" x="225" y="225" width="25" height="25"/>
  <rect class="cls-3" x="250" y="225" width="25" height="25"/>
  <rect class="cls-3" x="275" y="225" width="25" height="25"/>
  <rect class="cls-3" x="300" y="225" width="25" height="25"/>
  <rect class="cls-3" x="325" y="225" width="25" height="25"/>
  <rect class="cls-1" x="350" y="225" width="25" height="25"/>
  <rect class="cls-1" x="50" y="250" width="25" height="25"/>
  <rect class="cls-3" x="75" y="250" width="25" height="25"/>
  <rect class="cls-3" x="100" y="250" width="25" height="25"/>
  <rect class="cls-3" x="125" y="250" width="25" height="25"/>
  <rect class="cls-3" x="150" y="250" width="25" height="25"/>
  <rect class="cls-3" x="175" y="250" width="25" height="25"/>
  <rect class="cls-3" x="200" y="250" width="25" height="25"/>
  <rect class="cls-3" x="225" y="250" width="25" height="25"/>
  <rect class="cls-3" x="250" y="250" width="25" height="25"/>
  <rect class="cls-3" x="275" y="250" width="25" height="25"/>
  <rect class="cls-3" x="300" y="250" width="25" height="25"/>
  <rect class="cls-3" x="325" y="250" width="25" height="25"/>
  <rect class="cls-1" x="350" y="250" width="25" height="25"/>
  <rect class="cls-1" x="50" y="275" width="25" height="25"/>
  <rect class="cls-3" x="75" y="275" width="25" height="25"/>
  <rect class="cls-3" x="100" y="275" width="25" height="25"/>
  <rect class="cls-3" x="125" y="275" width="25" height="25"/>
  <rect class="cls-3" x="150" y="275" width="25" height="25"/>
  <rect class="cls-3" x="175" y="275" width="25" height="25"/>
  <rect class="cls-3" x="200" y="275" width="25" height="25"/>
  <rect class="cls-3" x="225" y="275" width="25" height="25"/>
  <rect class="cls-3" x="250" y="275" width="25" height="25"/>
  <rect class="cls-3" x="275" y="275" width="25" height="25"/>
  <rect class="cls-3" x="300" y="275" width="25" height="25"/>
  <rect class="cls-3" x="325" y="275" width="25" height="25"/>
  <rect class="cls-1" x="350" y="275" width="25" height="25"/>
  <rect class="cls-1" x="50" y="300" width="25" height="25"/>
  <rect class="cls-1" x="75" y="300" width="25" height="25"/>
  <rect class="cls-3" x="100" y="300" width="25" height="25"/>
  <rect class="cls-3" x="125" y="300" width="25" height="25"/>
  <rect class="cls-3" x="150" y="300" width="25" height="25"/>
  <rect class="cls-3" x="175" y="300" width="25" height="25"/>
  <rect class="cls-3" x="200" y="300" width="25" height="25"/>
  <rect class="cls-3" x="225" y="300" width="25" height="25"/>
  <rect class="cls-3" x="250" y="300" width="25" height="25"/>
  <rect class="cls-3" x="275" y="300" width="25" height="25"/>
  <rect class="cls-3" x="300" y="300" width="25" height="25"/>
  <rect class="cls-1" x="325" y="300" width="25" height="25"/>
  <rect class="cls-1" x="350" y="300" width="25" height="25"/>
  <rect class="cls-1" x="75" y="325" width="25" height="25"/>
  <rect class="cls-3" x="100" y="325" width="25" height="25"/>
  <rect class="cls-3" x="125" y="325" width="25" height="25"/>
  <rect class="cls-3" x="150" y="325" width="25" height="25"/>
  <rect class="cls-3" x="175" y="325" width="25" height="25"/>
  <rect class="cls-3" x="200" y="325" width="25" height="25"/>
  <rect class="cls-3" x="225" y="325" width="25" height="25"/>
  <rect class="cls-3" x="250" y="325" width="25" height="25"/>
  <rect class="cls-3" x="275" y="325" width="25" height="25"/>
  <rect class="cls-3" x="300" y="325" width="25" height="25"/>
  <rect class="cls-1" x="325" y="325" width="25" height="25"/>
  <rect class="cls-1" x="75" y="350" width="25" height="25"/>
  <rect class="cls-3" x="100" y="350" width="25" height="25"/>
  <rect class="cls-3" x="125" y="350" width="25" height="25"/>
  <rect class="cls-3" x="150" y="350" width="25" height="25"/>
  <rect class="cls-3" x="175" y="350" width="25" height="25"/>
  <rect class="cls-3" x="200" y="350" width="25" height="25"/>
  <rect class="cls-3" x="225" y="350" width="25" height="25"/>
  <rect class="cls-3" x="250" y="350" width="25" height="25"/>
  <rect class="cls-3" x="275" y="350" width="25" height="25"/>
  <rect class="cls-3" x="300" y="350" width="25" height="25"/>
  <rect class="cls-1" x="325" y="350" width="25" height="25"/>
  <rect class="cls-1" x="100" y="375" width="25" height="25"/>
  <rect class="cls-3" x="125" y="375" width="25" height="25"/>
  <rect class="cls-3" x="150" y="375" width="25" height="25"/>
  <rect class="cls-3" x="175" y="375" width="25" height="25"/>
  <rect class="cls-3" x="200" y="375" width="25" height="25"/>
  <rect class="cls-3" x="225" y="375" width="25" height="25"/>
  <rect class="cls-3" x="250" y="375" width="25" height="25"/>
  <rect class="cls-3" x="275" y="375" width="25" height="25"/>
  <rect class="cls-1" x="300" y="375" width="25" height="25"/>
  <rect class="cls-1" x="125" y="400" width="25" height="25"/>
  <rect class="cls-1" x="150" y="400" width="25" height="25"/>
  <rect class="cls-1" x="175" y="400" width="25" height="25"/>
  <rect class="cls-1" x="200" y="400" width="25" height="25"/>
  <rect class="cls-1" x="225" y="400" width="25" height="25"/>
  <rect class="cls-1" x="250" y="400" width="25" height="25"/>
  <rect class="cls-1" x="275" y="400" width="25" height="25"/>
  <rect class="cls-1" x="50" y="425" width="25" height="25"/>
  <rect class="cls-1" x="75" y="425" width="25" height="25"/>
  <rect class="cls-1" x="100" y="425" width="25" height="25"/>
  <rect class="cls-1" x="125" y="425" width="25" height="25"/>
  <rect class="cls-1" x="275" y="425" width="25" height="25"/>
  <rect class="cls-1" x="300" y="425" width="25" height="25"/>
  <rect class="cls-1" x="325" y="425" width="25" height="25"/>
  <rect class="cls-1" x="350" y="425" width="25" height="25"/>
</svg>
