<svg id="Layer_1" data-name="Layer 1" xmlns="http://www.w3.org/2000/svg" viewBox="0 0 175 75">
  <title>sunglasses</title>
  <rect width="25" height="25"/>
  <rect x="25" width="25" height="25"/>
  <rect x="50" width="25" height="25"/>
  <rect x="100" width="25" height="25"/>
  <rect x="125" width="25" height="25"/>
  <rect x="150" width="25" height="25"/>
  <rect y="25" width="25" height="25"/>
  <rect x="25" y="25" width="25" height="25"/>
  <rect x="50" y="25" width="25" height="25"/>
  <rect x="75" y="25" width="25" height="25"/>
  <rect x="100" y="25" width="25" height="25"/>
  <rect x="125" y="25" width="25" height="25"/>
  <rect x="150" y="25" width="25" height="25"/>
  <rect y="50" width="25" height="25"/>
  <rect x="25" y="50" width="25" height="25"/>
  <rect x="50" y="50" width="25" height="25"/>
  <rect x="100" y="50" width="25" height="25"/>
  <rect x="125" y="50" width="25" height="25"/>
  <rect x="150" y="50" width="25" height="25"/>
</svg>
